# xmcd
#
# Track frame offsets:
#	150
#	13475
#	24675
#	37825
#	52825
#	66575
#	78800
#	91162
#
# Disc length: 1350 seconds
#
# Revision: 1
# Processed by: cddbd v1.5.2PL0 Copyright (c) Steve Scherf et al.
# Submitted via: audiograbber 1.83.01
#
DISCID=5b054408
DTITLE=Diverse kunstnere Country - Phil Coley And Friends
DYEAR=1995
DGENRE=
TTITLE0=Don´t Let Success Spoil You -Phil Coley
TTITLE1=Tongue Tied -Phil Coley
TTITLE2=The Man You Want To Be -Phil Coley
TTITLE3=Share Your Love With The World -Phil Coley
TTITLE4=Afraid To Love Again -Claudia Ann Reame
TTITLE5=They Ask Me What I See In You -Claudia Ann Reame
TTITLE6=They Ask Me What I See In You -Mike Clark
TTITLE7=Payday To Payday -Mike Clark
EXTD=
EXTT0=
EXTT1=
EXTT2=
EXTT3=
EXTT4=
EXTT5=
EXTT6=
EXTT7=
PLAYORDER=
